<?xml version="1.0" encoding="UTF-8"?>
<!DOCTYPE svg PUBLIC "-//W3C//DTD SVG 1.1//EN" "http://www.w3.org/Graphics/SVG/1.1/DTD/svg11.dtd">
<!-- Creator: CorelDRAW -->
<svg xmlns="http://www.w3.org/2000/svg" xml:space="preserve" width="8in" height="8in" style="shape-rendering:geometricPrecision; text-rendering:geometricPrecision; image-rendering:optimizeQuality; fill-rule:evenodd; clip-rule:evenodd"
viewBox="0 0 8 8"
 xmlns:xlink="http://www.w3.org/1999/xlink">
 <defs>
  <style type="text/css">
   <![CDATA[
    .fil0 {fill:url(#id0)}
    .fil3 {fill:url(#id1)}
    .fil1 {fill:url(#id2)}
    .fil2 {fill:url(#id3)}
   ]]>
  </style>
  <linearGradient id="id0" gradientUnits="userSpaceOnUse" x1="1.43707" y1="4.00493" x2="6.56" y2="4.00493">
   <stop offset="0" style="stop-color:#E4877C"/>
   <stop offset="1" style="stop-color:#B03686"/>
  </linearGradient>
  <linearGradient id="id1" gradientUnits="userSpaceOnUse" xlink:href="#id0" x1="-0" y1="4" x2="8" y2="4">
  </linearGradient>
  <linearGradient id="id2" gradientUnits="userSpaceOnUse" xlink:href="#id0" x1="3.764" y1="3.58174" x2="3.98847" y2="3.58174">
  </linearGradient>
  <linearGradient id="id3" gradientUnits="userSpaceOnUse" xlink:href="#id0" x1="4.09393" y1="4.29788" x2="4.33434" y2="4.29788">
  </linearGradient>
 </defs>
 <g id="Layer_x0020_1">
  <metadata id="CorelCorpID_0Corel-Layer"/>
  <path class="fil0" d="M6.56 3.97031c0,-0.692394 -0.280657,-1.31925 -0.734409,-1.773 -0.453748,-0.453752 -1.08061,-0.734409 -1.773,-0.734409 -0.692394,0 -1.31925,0.280657 -1.773,0.734409 -0.453752,0.453748 -0.734409,1.08061 -0.734409,1.773 0,0.243079 0.0349016,0.47872 0.0999843,0.70215 0.0631535,0.216823 0.154835,0.421539 0.270685,0.609811l-0.467181 1.13863c-0.00933071,0.0183937 -0.0115984,0.0403622 -0.00456693,0.0614764 0.0139567,0.0419173 0.0592598,0.0645827 0.101177,0.050626l-0.000110236 -0.000330709 1.22483 -0.407902c0.185752,0.110831 0.386776,0.198331 0.599031,0.258394 0.217622,0.0615906 0.446925,0.0945591 0.683559,0.0945591 0.692394,0 1.31925,-0.280657 1.773,-0.734409 0.453752,-0.453748 0.734409,-1.08061 0.734409,-1.773zm-2.21887 -0.693579c0.0783268,0.0647638 0.125122,0.153945 0.141059,0.267197l-0.184803 0.0278071c-0.0105118,-0.070189 -0.0325512,-0.124106 -0.066122,-0.161406 -0.0332283,-0.0372992 -0.0790039,-0.0620512 -0.137327,-0.0739173l0 0.515406c0.0898583,0.0227205 0.149535,0.0403504 0.178697,0.0528976 0.0556102,0.0244134 0.101047,0.054252 0.135972,0.0891772 0.0352638,0.0352677 0.0623898,0.0769724 0.0810394,0.125122 0.0189921,0.0484921 0.0284843,0.100709 0.0284843,0.156996 0,0.124106 -0.0396732,0.227189 -0.118339,0.309925 -0.0786693,0.0830748 -0.180732,0.127157 -0.305854,0.13326l0 0.180732 -0.105457 0 0 -0.178697c-0.0895157,-0.0111929 -0.162083,-0.0311969 -0.218031,-0.0600197 -0.0559488,-0.0288228 -0.104437,-0.0756142 -0.145126,-0.139701 -0.040689,-0.0644291 -0.0644252,-0.142756 -0.0708701,-0.235327l0.179717 -0.0339094c0.0139016,0.0959646 0.038315,0.166492 0.0735787,0.211591 0.050185,0.063748 0.110543,0.0990118 0.180732,0.106134l0 -0.568984c-0.0735787,-0.0139016 -0.14852,-0.0423858 -0.225488,-0.0854488 -0.0569685,-0.031874 -0.100709,-0.0759528 -0.131567,-0.132244 -0.0308543,-0.0562874 -0.0461142,-0.120035 -0.0461142,-0.191583 0,-0.127154 0.0450984,-0.230236 0.134957,-0.308906 0.0603543,-0.0532362 0.149874,-0.0854488 0.268213,-0.097315l0 -0.0854488 0.105457 0 0 0.0854488c0.10376,0.00983465 0.186496,0.0403504 0.247193,0.0912126z"/>
  <path class="fil1" d="M3.98847 3.8291l0 -0.494724c-0.0695118,0.0105118 -0.124441,0.038315 -0.164457,0.0834134 -0.0400118,0.0450984 -0.0600157,0.0983346 -0.0600157,0.160047 0,0.0606969 0.0169528,0.111898 0.0512008,0.152929 0.034248,0.0410276 0.0918937,0.0739173 0.173272,0.0983346z"/>
  <path class="fil2" d="M4.33434 4.28788c0,-0.0647638 -0.0162756,-0.116984 -0.0481496,-0.156319 -0.0322126,-0.0393346 -0.0962992,-0.0745984 -0.19226,-0.105795l0 0.544232c0.0695118,-0.00847638 0.126815,-0.0386575 0.172256,-0.0901969 0.045437,-0.0515394 0.0681535,-0.115626 0.0681535,-0.191921z"/>
  <path class="fil3" d="M1.28 0l5.44001 0c0.704,0 1.28,0.575996 1.28,1.28l0 5.44001c0,0.704 -0.575996,1.28 -1.28,1.28l-5.44001 0c-0.704,0 -1.28,-0.575996 -1.28,-1.28l0 -5.44001c0,-0.704 0.575996,-1.28 1.28,-1.28zm0 0.479996l5.44001 0c0.44,0 0.8,0.36 0.8,0.8l0 5.44001c0,0.44 -0.36,0.8 -0.8,0.8l-5.44001 0c-0.44,0 -0.8,-0.36 -0.8,-0.8l0 -5.44001c0,-0.44 0.36,-0.8 0.8,-0.8z"/>
 </g>
</svg>
