<?xml version="1.0" encoding="UTF-8"?>
<!DOCTYPE svg PUBLIC "-//W3C//DTD SVG 1.1//EN" "http://www.w3.org/Graphics/SVG/1.1/DTD/svg11.dtd">
<!-- Creator: CorelDRAW -->
<svg xmlns="http://www.w3.org/2000/svg" xml:space="preserve" width="8in" height="8in" style="shape-rendering:geometricPrecision; text-rendering:geometricPrecision; image-rendering:optimizeQuality; fill-rule:evenodd; clip-rule:evenodd"
viewBox="0 0 8 8"
 xmlns:xlink="http://www.w3.org/1999/xlink">
 <defs>
  <style type="text/css">
   <![CDATA[
    .fil1 {fill:url(#id0)}
    .fil0 {fill:url(#id1);fill-rule:nonzero}
   ]]>
  </style>
  <linearGradient id="id0" gradientUnits="userSpaceOnUse" x1="-0" y1="4" x2="8" y2="4">
   <stop offset="0" style="stop-color:#E4877C"/>
   <stop offset="1" style="stop-color:#B03686"/>
  </linearGradient>
  <linearGradient id="id1" gradientUnits="userSpaceOnUse" xlink:href="#id0" x1="1.4342" y1="4" x2="6.55419" y2="4">
  </linearGradient>
 </defs>
 <g id="Layer_x0020_1">
  <metadata id="CorelCorpID_0Corel-Layer"/>
  <path class="fil0" d="M1.51438 1.92408l4.95963 0c0.0442835,0 0.0801811,0.0358976 0.0801811,0.0801811l0 0.752083 -5.12 0 0 -0.752083c0,-0.0442835 0.0358976,-0.0801811 0.0801811,-0.0801811zm3.59896 1.64577c-0.145953,-0.0209921 -0.296173,-0.00443701 -0.435004,0.0496496l0.463614 0.46361 0.056689 0.0566929 -0.056689 0.056689 -0.373406 0.373402 -0.056689 0.0566929 -0.0566929 -0.0566929 -0.46361 -0.46361c-0.0540866,0.138835 -0.0706457,0.289051 -0.0496496,0.435004 0.0254055,0.176606 0.106181,0.346937 0.24235,0.483102 0.119921,0.119921 0.266043,0.196874 0.419433,0.230882 0.158866,0.0352323 0.325917,0.0248031 0.480193,-0.0312638l0.0480118 -0.0174528 0.0359331 0.0359331 0.673067 0.673067 0.364575 0 0 -0.528862 -0.590925 -0.590921 -0.0359331 -0.0359331 0.0174567 -0.0480118c0.056063,-0.154276 0.0664921,-0.321327 0.0312638,-0.480193 -0.0340118,-0.15339 -0.110965,-0.299512 -0.230886,-0.419433 -0.136161,-0.136165 -0.306496,-0.216941 -0.483102,-0.24235zm1.44085 -0.653142l0 2.39194 -0.0118504 -0.0118543 -0.579528 -0.579528c0.0517244,-0.168744 0.0585669,-0.34837 0.0204882,-0.520094 -0.040563,-0.182949 -0.131728,-0.356614 -0.273472,-0.498362 -0.161402,-0.161398 -0.363787,-0.257217 -0.573933,-0.287449 -0.21474,-0.0308858 -0.437665,0.00711417 -0.633142,0.113984l-0.0939606 0.051374 0.0754803 0.0754803 0.487598 0.487598 -0.260016 0.260016 -0.487598 -0.487598 -0.0754843 -0.0754764 -0.0513701 0.0939567c-0.10687,0.19548 -0.144878,0.418402 -0.113984,0.633142 0.0302283,0.210146 0.126047,0.412531 0.287449,0.573933 0.141748,0.14174 0.315413,0.232909 0.498362,0.273472 0.171724,0.0380787 0.35135,0.0312362 0.520094,-0.0204882l0.661673 0.661669 0.0234882 0.0234882 0.0332008 0 0.466618 0 -0.000295276 3.93701e-006 -4.95963 0c-0.0442835,0 -0.0801811,-0.0358976 -0.0801811,-0.0801811l0 -3.07903 5.12 0zm-4.52173 -0.60198c-0.0442795,0 -0.0801811,0.0358976 -0.0801811,0.0801811 0,0.0442795 0.0359016,0.0801811 0.0801811,0.0801811l0.306693 0c0.0442835,0 0.0801811,-0.0359016 0.0801811,-0.0801811 0,-0.0442835 -0.0358976,-0.0801811 -0.0801811,-0.0801811l-0.306693 0zm0.74685 0c-0.0442835,0 -0.0801811,0.0358976 -0.0801811,0.0801811 0,0.0442795 0.0358976,0.0801811 0.0801811,0.0801811l0.306697 0c0.0442795,0 0.0801811,-0.0359016 0.0801811,-0.0801811 0,-0.0442835 -0.0359016,-0.0801811 -0.0801811,-0.0801811l-0.306697 0zm0.74685 0c-0.0442795,0 -0.0801811,0.0358976 -0.0801811,0.0801811 0,0.0442795 0.0359016,0.0801811 0.0801811,0.0801811l0.306693 0c0.0442835,0 0.0801811,-0.0359016 0.0801811,-0.0801811 0,-0.0442835 -0.0358976,-0.0801811 -0.0801811,-0.0801811l-0.306693 0z"/>
  <path class="fil1" d="M1.28 0l5.44001 0c0.704,0 1.28,0.575996 1.28,1.28l0 5.44001c0,0.704 -0.575996,1.28 -1.28,1.28l-5.44001 0c-0.704,0 -1.28,-0.575996 -1.28,-1.28l0 -5.44001c0,-0.704 0.575996,-1.28 1.28,-1.28zm0 0.479996l5.44001 0c0.44,0 0.8,0.36 0.8,0.8l0 5.44001c0,0.44 -0.36,0.8 -0.8,0.8l-5.44001 0c-0.44,0 -0.8,-0.36 -0.8,-0.8l0 -5.44001c0,-0.44 0.36,-0.8 0.8,-0.8z"/>
 </g>
</svg>
