<?xml version="1.0" encoding="UTF-8"?>
<!DOCTYPE svg PUBLIC "-//W3C//DTD SVG 1.1//EN" "http://www.w3.org/Graphics/SVG/1.1/DTD/svg11.dtd">
<!-- Creator: CorelDRAW -->
<svg xmlns="http://www.w3.org/2000/svg" xml:space="preserve" width="8in" height="8in" style="shape-rendering:geometricPrecision; text-rendering:geometricPrecision; image-rendering:optimizeQuality; fill-rule:evenodd; clip-rule:evenodd"
viewBox="0 0 8 8"
 xmlns:xlink="http://www.w3.org/1999/xlink">
 <defs>
  <style type="text/css">
   <![CDATA[
    .fil2 {fill:url(#id0)}
    .fil3 {fill:url(#id1)}
    .fil0 {fill:url(#id2);fill-rule:nonzero}
    .fil1 {fill:url(#id3);fill-rule:nonzero}
   ]]>
  </style>
  <linearGradient id="id0" gradientUnits="userSpaceOnUse" x1="1.44" y1="3.73785" x2="6.56" y2="3.73785">
   <stop offset="0" style="stop-color:#E4877C"/>
   <stop offset="1" style="stop-color:#B03686"/>
  </linearGradient>
  <linearGradient id="id1" gradientUnits="userSpaceOnUse" xlink:href="#id0" x1="-0" y1="4" x2="8" y2="4">
  </linearGradient>
  <linearGradient id="id2" gradientUnits="userSpaceOnUse" xlink:href="#id0" x1="3.45396" y1="5.74765" x2="4.54604" y2="5.74765">
  </linearGradient>
  <linearGradient id="id3" gradientUnits="userSpaceOnUse" xlink:href="#id0" x1="2.68196" y1="6.00979" x2="5.31804" y2="6.00979">
  </linearGradient>
 </defs>
 <g id="Layer_x0020_1">
  <metadata id="CorelCorpID_0Corel-Layer"/>
  <path class="fil0" d="M3.53396 5.4055l0.932079 0c0.0441811,0 0.08,0.0358189 0.08,0.08l0 0.524291c0,0.0441811 -0.0358189,0.08 -0.08,0.08l-0.932079 0c-0.0441811,0 -0.08,-0.0358189 -0.08,-0.08l0 -0.524291c0,-0.0441811 0.0358189,-0.08 0.08,-0.08z"/>
  <path class="fil1" d="M2.76196 5.92979c-0.0441811,0 -0.08,0.0358189 -0.08,0.08 0,0.0441811 0.0358189,0.08 0.08,0.08l2.47607 0c0.0441811,0 0.08,-0.0358189 0.08,-0.08 0,-0.0441811 -0.0358189,-0.08 -0.08,-0.08l-2.47607 0z"/>
  <path class="fil2" d="M6.56 5.4855l0 -3.4953c0,-0.0441811 -0.0358189,-0.08 -0.08,-0.08l-4.96 0c-0.0441811,0 -0.08,0.0358189 -0.08,0.08l0 3.4953c0,0.0441811 0.0358189,0.08 0.08,0.08 1.8211,0 3.1389,0 4.96,0 0.0441811,0 0.08,-0.0358189 0.08,-0.08zm-3.89881 -1.80855l0.68365 0c0.0336339,0 0.0609016,0.0272677 0.0609016,0.0609016l0 1.0326c0,0.0336339 -0.0272677,0.0608976 -0.0609016,0.0608976l-0.68365 0c-0.0336339,0 -0.0609016,-0.0272638 -0.0609016,-0.0608976l0 -1.0326c0,-0.0336339 0.0272677,-0.0609016 0.0609016,-0.0609016zm1.99397 -1.03259l0.68365 0c0.0336339,0 0.0609016,0.0272638 0.0609016,0.0608976l0 2.0652c0,0.0336339 -0.0272677,0.0608976 -0.0609016,0.0608976l-0.68365 0c-0.0336339,0 -0.0609016,-0.0272638 -0.0609016,-0.0608976l0 -2.0652c0,-0.0336339 0.0272677,-0.0608976 0.0609016,-0.0608976zm-0.996988 0.518075l0.683654 0c0.0336339,0 0.0609016,0.0272677 0.0609016,0.0609016l0 1.54712c0,0.0336339 -0.0272677,0.0608976 -0.0609016,0.0608976l-0.683654 0c-0.0336339,0 -0.0609016,-0.0272638 -0.0609016,-0.0608976l0 -1.54712c0,-0.0336339 0.0272677,-0.0609016 0.0609016,-0.0609016z"/>
  <path class="fil3" d="M1.28 0l5.44001 0c0.704,0 1.28,0.575996 1.28,1.28l0 5.44001c0,0.704 -0.575996,1.28 -1.28,1.28l-5.44001 0c-0.704,0 -1.28,-0.575996 -1.28,-1.28l0 -5.44001c0,-0.704 0.575996,-1.28 1.28,-1.28zm0 0.479996l5.44001 0c0.44,0 0.8,0.36 0.8,0.8l0 5.44001c0,0.44 -0.36,0.8 -0.8,0.8l-5.44001 0c-0.44,0 -0.8,-0.36 -0.8,-0.8l0 -5.44001c0,-0.44 0.36,-0.8 0.8,-0.8z"/>
 </g>
</svg>
