<?xml version="1.0" encoding="UTF-8"?>
<!DOCTYPE svg PUBLIC "-//W3C//DTD SVG 1.1//EN" "http://www.w3.org/Graphics/SVG/1.1/DTD/svg11.dtd">
<!-- Creator: CorelDRAW -->
<svg xmlns="http://www.w3.org/2000/svg" xml:space="preserve" width="8in" height="8in" style="shape-rendering:geometricPrecision; text-rendering:geometricPrecision; image-rendering:optimizeQuality; fill-rule:evenodd; clip-rule:evenodd"
viewBox="0 0 8 8"
 xmlns:xlink="http://www.w3.org/1999/xlink">
 <defs>
  <style type="text/css">
   <![CDATA[
    .fil0 {fill:url(#id0)}
    .fil5 {fill:url(#id1)}
    .fil8 {fill:url(#id2)}
    .fil2 {fill:url(#id3)}
    .fil10 {fill:url(#id4)}
    .fil3 {fill:url(#id5)}
    .fil11 {fill:url(#id6)}
    .fil13 {fill:url(#id7)}
    .fil4 {fill:url(#id8)}
    .fil7 {fill:url(#id9)}
    .fil6 {fill:url(#id10)}
    .fil1 {fill:url(#id11)}
    .fil9 {fill:url(#id12)}
    .fil12 {fill:url(#id13)}
   ]]>
  </style>
  <linearGradient id="id0" gradientUnits="userSpaceOnUse" x1="1.15447" y1="4" x2="7.02281" y2="4">
   <stop offset="0" style="stop-color:#E4877C"/>
   <stop offset="1" style="stop-color:#B03686"/>
  </linearGradient>
  <linearGradient id="id1" gradientUnits="userSpaceOnUse" xlink:href="#id0" x1="2.78722" y1="2.87347" x2="5.21277" y2="2.87347">
  </linearGradient>
  <linearGradient id="id2" gradientUnits="userSpaceOnUse" xlink:href="#id0" x1="2.78722" y1="5.12653" x2="5.21277" y2="5.12653">
  </linearGradient>
  <linearGradient id="id3" gradientUnits="userSpaceOnUse" xlink:href="#id0" x1="2.93035" y1="2.0418" x2="5.06965" y2="2.0418">
  </linearGradient>
  <linearGradient id="id4" gradientUnits="userSpaceOnUse" xlink:href="#id0" x1="2.93035" y1="5.9582" x2="5.06965" y2="5.9582">
  </linearGradient>
  <linearGradient id="id5" gradientUnits="userSpaceOnUse" xlink:href="#id0" x1="4.61828" y1="2.00706" x2="5.90554" y2="2.00706">
  </linearGradient>
  <linearGradient id="id6" gradientUnits="userSpaceOnUse" xlink:href="#id0" x1="2.09446" y1="5.99294" x2="3.38172" y2="5.99294">
  </linearGradient>
  <linearGradient id="id7" gradientUnits="userSpaceOnUse" xlink:href="#id0" x1="-0" y1="4" x2="8" y2="4">
  </linearGradient>
  <linearGradient id="id8" gradientUnits="userSpaceOnUse" xlink:href="#id0" x1="5.29011" y1="2.73908" x2="6.37497" y2="2.73908">
  </linearGradient>
  <linearGradient id="id9" gradientUnits="userSpaceOnUse" xlink:href="#id0" x1="1.62502" y1="5.26092" x2="2.70988" y2="5.26092">
  </linearGradient>
  <linearGradient id="id10" gradientUnits="userSpaceOnUse" xlink:href="#id0" x1="1.62502" y1="2.73908" x2="2.70988" y2="2.73908">
  </linearGradient>
  <linearGradient id="id11" gradientUnits="userSpaceOnUse" xlink:href="#id0" x1="2.09446" y1="2.00706" x2="3.38172" y2="2.00706">
  </linearGradient>
  <linearGradient id="id12" gradientUnits="userSpaceOnUse" xlink:href="#id0" x1="5.29011" y1="5.26092" x2="6.37497" y2="5.26092">
  </linearGradient>
  <linearGradient id="id13" gradientUnits="userSpaceOnUse" xlink:href="#id0" x1="4.61828" y1="5.99294" x2="5.90554" y2="5.99294">
  </linearGradient>
 </defs>
 <g id="Layer_x0020_1">
  <metadata id="CorelCorpID_0Corel-Layer"/>
  <path class="fil0" d="M3.73752 4.49516l-0.284969 -0.93124 0.163138 0 0.148173 0.53761 0.0550748 0.199961c0.00239764,-0.0101811 0.0185591,-0.0742362 0.0481929,-0.192177l0.148173 -0.545394 0.16224 0 0.139492 0.540008 0.0466969 0.178102 0.0532835 -0.179902 0.159543 -0.538209 0.153563 0 -0.291256 0.93124 -0.163736 0 -0.148173 -0.557665 -0.0362205 -0.158949 -0.188283 0.716614 -0.164933 0zm-2.50304 0.376508l5.70833 0 0.08 0 0 -0.08 0 -1.58333 0 -0.08 -0.08 0 -5.70833 0 -0.08 0 0 0.08 0 1.58333 0 0.08 0.08 0zm1.14704 -1.30775l0.139492 0.540008 0.0466969 0.178102 0.0532835 -0.179902 0.159543 -0.538209 0.153563 0 -0.291256 0.93124 -0.163736 0 -0.148173 -0.557665 -0.0362205 -0.158949 -0.188283 0.716614 -0.164933 0 -0.284969 -0.93124 0.163138 0 0.148173 0.53761 0.0550748 0.199961c0.00239764,-0.0101811 0.0185591,-0.0742362 0.0481929,-0.192177l0.148173 -0.545394 0.16224 0zm3.15202 0.93124l-0.284969 -0.93124 0.163138 0 0.148173 0.53761 0.0550748 0.199961c0.00239764,-0.0101811 0.0185591,-0.0742362 0.0481929,-0.192177l0.148173 -0.545394 0.16224 0 0.139492 0.540008 0.0466969 0.178102 0.0532835 -0.179902 0.159543 -0.538209 0.153563 0 -0.291256 0.93124 -0.163736 0 -0.148173 -0.557665 -0.0362205 -0.158949 -0.188283 0.716614 -0.164933 0z"/>
  <g id="_289041576">
   <path id="_289042776" class="fil1" d="M2.94012 2.0899c0.125579,-0.238555 0.274972,-0.43428 0.441602,-0.574654 -0.147807,0.0367087 -0.290531,0.0862717 -0.426913,0.147445 -0.0168031,0.00754331 -0.0335079,0.0152559 -0.0501142,0.0231496 -0.309315,0.146957 -0.584441,0.354205 -0.810236,0.606524 0.216323,0.0827992 0.439488,0.151969 0.668535,0.2065 0.0519764,-0.147051 0.111354,-0.284016 0.177126,-0.408965z"/>
   <path id="_289042872" class="fil2" d="M5.06965 2.53587c-0.0474646,-0.131638 -0.101165,-0.25439 -0.160295,-0.366713 -0.237146,-0.450512 -0.559004,-0.729157 -0.909358,-0.729157 -0.350346,0 -0.672213,0.278646 -0.909358,0.729157 -0.0591299,0.112323 -0.112827,0.235075 -0.160291,0.366713 0.0139646,0.00285433 0.0279528,0.00565748 0.0419606,0.00840157 0.332642,0.0652087 0.676173,0.0993307 1.02769,0.0993307 0.35152,0 0.695051,-0.034122 1.0277,-0.0993307 0.0140079,-0.00274409 0.0279921,-0.00554724 0.0419567,-0.00840157z"/>
   <path id="_289042008" class="fil3" d="M5.90554 2.29237c-0.225795,-0.252319 -0.500921,-0.459567 -0.810232,-0.606524 -0.0141969,-0.00675591 -0.0284764,-0.0133701 -0.0428189,-0.0198622 -0.138587,-0.062685 -0.283764,-0.113366 -0.434213,-0.150724 0.16663,0.140366 0.316024,0.336091 0.441598,0.574646 0.0657717,0.124949 0.125154,0.261913 0.17713,0.408965 0.229043,-0.0545276 0.452213,-0.123701 0.668535,-0.2065z"/>
   <path id="_289042512" class="fil4" d="M6.37497 3.04833c-0.0894016,-0.223465 -0.209354,-0.431362 -0.354685,-0.618512 -0.236748,0.0935669 -0.480551,0.171118 -0.730173,0.231374 0.037252,0.123346 0.0695157,0.252728 0.0962874,0.387138l0.988571 0z"/>
   <path id="_289042176" class="fil5" d="M5.21277 3.04833c-0.0251417,-0.121394 -0.0549567,-0.238236 -0.0890236,-0.349724 -0.0211024,0.0043937 -0.0422441,0.00866929 -0.0634213,0.0128228 -0.343811,0.0673976 -0.698264,0.102661 -1.06033,0.102661 -0.362067,0 -0.716516,-0.0352638 -1.06032,-0.102661 -0.0211811,-0.00415354 -0.0423228,-0.00842913 -0.0634252,-0.0128228 -0.0340669,0.111484 -0.0638819,0.228331 -0.0890236,0.349724l2.42555 0z"/>
   <path id="_289042584" class="fil6" d="M2.61359 3.04833c0.0267717,-0.134409 0.0590315,-0.263791 0.0962835,-0.387138 -0.249622,-0.0602638 -0.493421,-0.137811 -0.730165,-0.231378 -0.145331,0.18715 -0.265287,0.395051 -0.354689,0.618516l0.988571 0z"/>
   <path id="_289042200" class="fil7" d="M2.70988 5.3388c-0.037252,-0.12335 -0.0695118,-0.252732 -0.0962835,-0.387142l-0.988571 0c0.0894055,0.223469 0.209354,0.43137 0.354689,0.61852 0.236744,-0.0935669 0.480547,-0.171114 0.730165,-0.231378z"/>
   <path id="_289042344" class="fil8" d="M5.12375 5.30139c0.0340669,-0.111488 0.0638819,-0.228335 0.0890236,-0.349728l-2.42555 0c0.0251417,0.121394 0.0549567,0.23824 0.0890236,0.349728 0.0211063,-0.0043937 0.0422441,-0.00866929 0.0634252,-0.0128228 0.343807,-0.0673976 0.698256,-0.102661 1.06032,-0.102661 0.362067,0 0.71652,0.0352638 1.06033,0.102661 0.0211772,0.00415354 0.0423189,0.00842913 0.0634213,0.0128228z"/>
   <path id="_289042416" class="fil9" d="M6.02029 5.57018c0.145335,-0.18715 0.265283,-0.395047 0.354685,-0.618516l-0.988571 0c-0.0267717,0.134409 -0.0590354,0.263791 -0.0962874,0.387142 0.249622,0.0602559 0.493425,0.137807 0.730173,0.231374z"/>
   <path id="_289042272" class="fil10" d="M4.90935 5.83084c0.0591299,-0.112323 0.112831,-0.235075 0.160295,-0.366713 -0.0139646,-0.00285433 -0.0279488,-0.00565748 -0.0419567,-0.00840157 -0.332646,-0.0652087 -0.676177,-0.0993307 -1.0277,-0.0993307 -0.351516,0 -0.695047,0.034122 -1.02769,0.0993307 -0.0140079,0.00274409 -0.0279961,0.00554724 -0.0419606,0.00840157 0.0474646,0.131638 0.101161,0.25439 0.160291,0.366713 0.237146,0.450512 0.559012,0.729157 0.909358,0.729157 0.350354,0 0.672213,-0.278646 0.909358,-0.729157z"/>
   <path id="_289041384" class="fil11" d="M3.38172 6.48475c-0.16663,-0.140374 -0.316024,-0.336098 -0.441602,-0.574654 -0.0657717,-0.124949 -0.12515,-0.261913 -0.177126,-0.408965 -0.229047,0.0545315 -0.452213,0.123701 -0.668535,0.2065 0.225795,0.252319 0.500921,0.459567 0.810236,0.606524 0.0166024,0.00789764 0.033311,0.0156102 0.0501142,0.0231496 0.136382,0.0611732 0.279106,0.110736 0.426913,0.147445z"/>
   <path id="_289041600" class="fil12" d="M5.09531 6.31416c0.309311,-0.146957 0.584437,-0.354205 0.810232,-0.606524 -0.216323,-0.0827992 -0.439492,-0.151972 -0.668535,-0.2065 -0.0519764,0.147051 -0.111358,0.284016 -0.17713,0.408965 -0.125579,0.238555 -0.274972,0.43428 -0.441598,0.574646 0.150449,-0.0373583 0.295626,-0.0880433 0.434213,-0.150724 0.0143425,-0.00649606 0.0286181,-0.0131142 0.0428189,-0.0198622z"/>
  </g>
  <path class="fil13" d="M1.28 0l5.44001 0c0.704,0 1.28,0.575996 1.28,1.28l0 5.44001c0,0.704 -0.575996,1.28 -1.28,1.28l-5.44001 0c-0.704,0 -1.28,-0.575996 -1.28,-1.28l0 -5.44001c0,-0.704 0.575996,-1.28 1.28,-1.28zm0 0.479996l5.44001 0c0.44,0 0.8,0.36 0.8,0.8l0 5.44001c0,0.44 -0.36,0.8 -0.8,0.8l-5.44001 0c-0.44,0 -0.8,-0.36 -0.8,-0.8l0 -5.44001c0,-0.44 0.36,-0.8 0.8,-0.8z"/>
 </g>
</svg>
