<?xml version="1.0" standalone="no"?>
<!DOCTYPE svg PUBLIC "-//W3C//DTD SVG 20010904//EN"
 "http://www.w3.org/TR/2001/REC-SVG-20010904/DTD/svg10.dtd">
<svg version="1.0" xmlns="http://www.w3.org/2000/svg"
 width="96.000000pt" height="96.000000pt" viewBox="0 0 96.000000 96.000000"
 preserveAspectRatio="xMidYMid meet">
<metadata>
Created by potrace 1.14, written by Peter Selinger 2001-2017
</metadata>
<g transform="translate(0.000000,96.000000) scale(0.100000,-0.100000)"
fill="#000000" stroke="none">
<path d="M470 920 c0 -151 -162 -231 -270 -134 -34 31 -60 43 -60 28 0 -3 15
-24 34 -46 100 -116 18 -278 -141 -278 -18 0 -33 -4 -33 -10 0 -5 20 -10 45
-10 151 0 230 -174 125 -275 -27 -26 -40 -55 -24 -55 3 0 24 16 47 35 115 98
276 21 277 -132 0 -24 5 -43 10 -43 6 0 10 19 10 43 1 55 30 119 69 146 30 21
41 41 22 41 -4 0 -25 -11 -46 -25 -20 -15 -39 -24 -42 -21 -12 12 11 68 39 91
34 28 88 34 88 10 0 -11 8 -15 27 -13 23 3 28 -1 33 -27 3 -21 12 -31 26 -33
12 -2 40 -19 62 -38 22 -18 43 -34 46 -34 16 0 2 28 -29 60 -98 100 -18 269
128 270 26 0 47 5 47 10 0 6 -15 10 -32 10 -119 0 -201 91 -183 200 4 22 21
55 41 78 19 22 34 43 34 46 0 15 -26 3 -60 -28 -108 -97 -270 -17 -270 134 0
22 -4 40 -10 40 -5 0 -10 -18 -10 -40z m-4 -176 c-19 -73 -104 -107 -160 -63
-35 28 -33 34 15 37 47 3 85 20 113 51 24 27 41 13 32 -25z m111 -13 c12 -6
40 -11 62 -11 48 0 51 -10 15 -39 -52 -41 -126 -18 -154 48 -7 17 -9 38 -6 47
6 15 10 14 34 -8 15 -14 37 -31 49 -37z m-293 -76 c21 -31 21 -84 0 -114 -20
-28 -76 -53 -99 -45 -14 6 -13 10 8 33 32 34 43 57 52 109 8 48 16 52 39 17z
m431 -17 c9 -52 20 -75 52 -109 21 -23 22 -27 8 -33 -23 -8 -79 17 -99 45 -21
30 -21 83 0 114 23 35 31 31 39 -17z m-251 -14 c-14 -40 -48 -48 -80 -21 l-26
23 40 12 c23 7 44 17 48 23 13 22 28 -9 18 -37z m126 6 c10 -1 7 -8 -12 -24
-18 -16 -34 -22 -48 -19 -25 7 -45 44 -37 67 5 12 11 12 44 -5 20 -10 44 -19
53 -19z m-224 -55 c20 -30 10 -63 -22 -75 -43 -17 -54 -4 -33 38 11 20 19 42
19 49 0 21 18 15 36 -12z m264 12 c0 -7 8 -29 19 -49 21 -42 10 -55 -33 -38
-32 12 -42 45 -22 75 18 27 36 33 36 12z m-160 -43 c0 -16 -16 -19 -25 -4 -8
13 4 32 16 25 5 -4 9 -13 9 -21z m42 -6 c-6 -6 -15 -9 -18 -5 -4 3 -4 14 0 23
5 13 9 15 18 6 9 -9 9 -15 0 -24z m-83 -39 c-7 -4 -18 -5 -26 -2 -10 4 -11 9
-2 19 9 11 15 12 26 3 11 -9 11 -14 2 -20z m130 0 c-7 -4 -18 -5 -26 -2 -10 4
-11 9 -2 19 9 11 15 12 26 3 11 -9 11 -14 2 -20z m-293 -63 c43 -43 46 -91 9
-133 -22 -25 -24 -26 -25 -8 0 37 -20 92 -45 129 -31 46 -31 46 1 46 16 0 39
-13 60 -34z m94 14 c26 -26 25 -42 -5 -70 -23 -22 -25 -22 -25 -4 0 10 -9 33
-19 51 -11 17 -17 34 -14 37 13 12 44 5 63 -14z m70 11 c0 -14 -18 -23 -30
-16 -6 4 -8 11 -5 16 8 12 35 12 35 0z m131 -6 c-1 -15 -24 -12 -29 3 -3 9 2
13 12 10 10 -1 17 -7 17 -13z m102 9 c3 -3 -3 -20 -14 -37 -10 -18 -19 -41
-19 -51 0 -18 -2 -18 -25 4 -14 13 -25 29 -25 37 0 31 63 67 83 47z m117 1 c0
-2 -11 -21 -25 -41 -25 -37 -45 -92 -45 -129 -1 -18 -3 -17 -25 8 -37 42 -34
90 9 133 21 21 44 34 60 34 14 0 26 -2 26 -5z m-317 -56 c-17 -17 -37 -1 -22
17 8 10 15 12 23 4 7 -7 7 -13 -1 -21z m57 -3 c-13 -13 -35 7 -25 24 5 8 11 8
21 -1 10 -8 12 -15 4 -23z m-70 -46 c19 -19 26 -50 14 -63 -3 -3 -20 3 -37 14
-18 10 -40 19 -49 19 -25 0 -22 16 4 34 30 21 44 20 68 -4z m128 4 c26 -18 29
-34 5 -34 -10 0 -32 -9 -50 -19 -17 -11 -34 -17 -37 -14 -12 13 -5 44 14 63
24 24 38 25 68 4z m-150 -89 c28 -23 51 -79 39 -91 -3 -3 -21 6 -42 20 -37 26
-94 46 -127 46 -25 0 -22 16 4 34 35 25 91 20 126 -9z"/>
</g>
</svg>
